<mxfile host="app.diagrams.net" modified="2023-08-15T10:12:52.610Z" agent="Mozilla/5.0 (Windows NT 10.0; Win64; x64) AppleWebKit/537.36 (KHTML, like Gecko) Chrome/115.0.0.0 Safari/537.36" etag="6sPvQgxstQiZVEeuQvVT" version="21.3.6" type="github">
  <diagram name="第 1 页" id="ZhuZIONUZtwT35FrMZi9">
    <mxGraphModel dx="1194" dy="601" grid="1" gridSize="10" guides="1" tooltips="1" connect="1" arrows="1" fold="1" page="1" pageScale="1" pageWidth="3300" pageHeight="4681" math="0" shadow="0">
      <root>
        <mxCell id="0" />
        <mxCell id="1" parent="0" />
        <mxCell id="JLJj6rmPOWrzHyYav7SM-1" value="ocean-dashboard" style="rounded=0;whiteSpace=wrap;html=1;" vertex="1" parent="1">
          <mxGeometry x="170" y="320" width="110" height="40" as="geometry" />
        </mxCell>
        <mxCell id="JLJj6rmPOWrzHyYav7SM-8" value="Project Dependence" style="text;html=1;strokeColor=none;fillColor=none;align=center;verticalAlign=middle;whiteSpace=wrap;rounded=0;" vertex="1" parent="1">
          <mxGeometry x="130" y="280" width="120" height="30" as="geometry" />
        </mxCell>
        <mxCell id="JLJj6rmPOWrzHyYav7SM-10" value="" style="endArrow=classic;html=1;rounded=0;exitX=1;exitY=0;exitDx=0;exitDy=0;entryX=0;entryY=0.5;entryDx=0;entryDy=0;" edge="1" parent="1" source="JLJj6rmPOWrzHyYav7SM-1" target="JLJj6rmPOWrzHyYav7SM-12">
          <mxGeometry width="50" height="50" relative="1" as="geometry">
            <mxPoint x="310" y="290" as="sourcePoint" />
            <mxPoint x="320" y="280" as="targetPoint" />
          </mxGeometry>
        </mxCell>
        <mxCell id="JLJj6rmPOWrzHyYav7SM-11" value="" style="endArrow=classic;html=1;rounded=0;exitX=1;exitY=1;exitDx=0;exitDy=0;entryX=0;entryY=0.5;entryDx=0;entryDy=0;" edge="1" parent="1" source="JLJj6rmPOWrzHyYav7SM-1" target="JLJj6rmPOWrzHyYav7SM-13">
          <mxGeometry width="50" height="50" relative="1" as="geometry">
            <mxPoint x="290" y="360" as="sourcePoint" />
            <mxPoint x="320" y="400" as="targetPoint" />
          </mxGeometry>
        </mxCell>
        <mxCell id="JLJj6rmPOWrzHyYav7SM-12" value="resource-sentinel" style="rounded=0;whiteSpace=wrap;html=1;" vertex="1" parent="1">
          <mxGeometry x="320" y="280" width="120" height="40" as="geometry" />
        </mxCell>
        <mxCell id="JLJj6rmPOWrzHyYav7SM-13" value="shiro-login" style="rounded=0;whiteSpace=wrap;html=1;" vertex="1" parent="1">
          <mxGeometry x="320" y="360" width="120" height="40" as="geometry" />
        </mxCell>
        <mxCell id="JLJj6rmPOWrzHyYav7SM-15" value="ocean-dashboard" style="rounded=0;whiteSpace=wrap;html=1;" vertex="1" parent="1">
          <mxGeometry x="520" y="200" width="120" height="40" as="geometry" />
        </mxCell>
        <mxCell id="JLJj6rmPOWrzHyYav7SM-16" value="resource-sentinel" style="rounded=0;whiteSpace=wrap;html=1;" vertex="1" parent="1">
          <mxGeometry x="520" y="280" width="120" height="40" as="geometry" />
        </mxCell>
        <mxCell id="JLJj6rmPOWrzHyYav7SM-17" value="shiro-login" style="rounded=0;whiteSpace=wrap;html=1;" vertex="1" parent="1">
          <mxGeometry x="520" y="360" width="120" height="40" as="geometry" />
        </mxCell>
        <mxCell id="JLJj6rmPOWrzHyYav7SM-18" value="&lt;ul&gt;&lt;li&gt;It is JSF framework&lt;/li&gt;&lt;li&gt;Include functions&lt;/li&gt;&lt;ul&gt;&lt;li&gt;get sort all menu by user id . ocean app profile \ ocean app sort&lt;/li&gt;&lt;li&gt;get function id.&lt;/li&gt;&lt;li&gt;get user id&lt;/li&gt;&lt;li&gt;is allow top 10 edit&lt;/li&gt;&lt;/ul&gt;&lt;/ul&gt;" style="text;html=1;strokeColor=none;fillColor=none;align=left;verticalAlign=middle;whiteSpace=wrap;rounded=0;" vertex="1" parent="1">
          <mxGeometry x="650" y="190" width="460" height="80" as="geometry" />
        </mxCell>
      </root>
    </mxGraphModel>
  </diagram>
</mxfile>
